<svg width="56" height="54" xmlns="http://www.w3.org/2000/svg" xmlns:xlink="http://www.w3.org/1999/xlink" xmlns:svgjs="http://svgjs.com/svgjs" viewBox="278 4439 56 54"><svg width="56" height="54" xmlns="http://www.w3.org/2000/svg" xmlns:xlink="http://www.w3.org/1999/xlink" xmlns:svgjs="http://svgjs.com/svgjs" fill="#edfcf6" x="278" y="4439"><svg xmlns="http://www.w3.org/2000/svg" xmlns:xlink="http://www.w3.org/1999/xlink" width="56" height="54"><path paint-order="stroke fill markers" fill-rule="evenodd" d="M15 0h26c8.295 0 15 6.704 15 15v24c0 8.295-6.705 15-15 15H15C6.705 54 0 47.295 0 39V15C0 6.704 6.705 0 15 0z"/></svg></svg><svg width="25" height="20" xmlns="http://www.w3.org/2000/svg" xmlns:xlink="http://www.w3.org/1999/xlink" xmlns:svgjs="http://svgjs.com/svgjs" viewBox="0 0.294 25 19.412" fill="#5ad6a6" x="294" y="4456"><svg xmlns="http://www.w3.org/2000/svg" width="25" height="20" viewBox="0.128 0.418 24.352 18.91"><path paint-order="stroke fill markers" fill-rule="evenodd" d="M9.453 18.963a1.24 1.24 0 0 1-1.758 0L.675 11.94a1.864 1.864 0 0 1 0-2.637l.878-.88a1.865 1.865 0 0 1 2.638 0l4.383 4.384L20.417.964a1.865 1.865 0 0 1 2.638 0l.879.88c.728.728.728 1.909 0 2.637L9.453 18.963z"/></svg></svg></svg>