<svg width="73" height="70" xmlns="http://www.w3.org/2000/svg" xmlns:xlink="http://www.w3.org/1999/xlink" xmlns:svgjs="http://svgjs.com/svgjs" viewBox="1290 2015 73 70">
    <svg width="73" height="70" xmlns="http://www.w3.org/2000/svg" xmlns:xlink="http://www.w3.org/1999/xlink" xmlns:svgjs="http://svgjs.com/svgjs" fill="none" stroke-miterlimit="100" stroke="#feb301" stroke-width="2" x="1308" y="2032">
        <svg xmlns="http://www.w3.org/2000/svg" xmlns:xlink="http://www.w3.org/1999/xlink" width="37" height="37" viewBox="0 0 36.524 36.523">
            <path paint-order="stroke fill markers" d="M18.262 36.523C8.163 36.523 0 28.36 0 18.261 0 8.163 8.163 0 18.262 0S36.524 8.163 36.524 18.26c0 10.1-8.163 18.262-18.262 18.262z" />
        </svg>
    </svg>
    <svg width="73" height="70" xmlns="http://www.w3.org/2000/svg" xmlns:xlink="http://www.w3.org/1999/xlink" xmlns:svgjs="http://svgjs.com/svgjs" fill="#ffe014" opacity=".102" x="1290" y="2015">
        <svg xmlns="http://www.w3.org/2000/svg" width="73" height="70">
            <path paint-order="stroke fill markers" fill-rule="evenodd" d="M15 0h43c8.295 0 15 6.705 15 15v40c0 8.295-6.705 15-15 15H15C6.705 70 0 63.294 0 55V15C0 6.705 6.705 0 15 0z" />
        </svg>
    </svg>
</svg>