<svg width="26" height="26" xmlns="http://www.w3.org/2000/svg" xmlns:xlink="http://www.w3.org/1999/xlink" xmlns:svgjs="http://svgjs.com/svgjs" viewBox="36 5598 26 26"><svg width="26" height="26" xmlns="http://www.w3.org/2000/svg" xmlns:xlink="http://www.w3.org/1999/xlink" xmlns:svgjs="http://svgjs.com/svgjs" fill="#5b2aee" x="36" y="5598"><svg xmlns="http://www.w3.org/2000/svg" xmlns:xlink="http://www.w3.org/1999/xlink" width="26" height="26"><path paint-order="stroke fill markers" fill-rule="evenodd" d="M13 26C5.81 26 0 20.189 0 13 0 5.81 5.81 0 13 0c7.189 0 13 5.81 13 13 0 7.189-5.811 13-13 13z"/></svg></svg><svg width="7" height="13" xmlns="http://www.w3.org/2000/svg" xmlns:xlink="http://www.w3.org/1999/xlink" xmlns:svgjs="http://svgjs.com/svgjs" viewBox="0.25 0 6.5 13" fill="#fff" x="45" y="5604"><svg xmlns="http://www.w3.org/2000/svg" width="7" height="13" viewBox="0.884 0.872 6.002 12.004"><path paint-order="stroke fill markers" fill-rule="evenodd" d="M6.886 4.998h-2.25v-1.5a.75.75 0 0 1 .75-.75h.75V.871h-1.5a2.25 2.25 0 0 0-2.251 2.25v1.876h-1.5v1.876h1.5v6.002h2.25V6.874h1.501l.75-1.876z"/></svg></svg></svg>