<svg width="28" height="26" xmlns="http://www.w3.org/2000/svg" xmlns:xlink="http://www.w3.org/1999/xlink" xmlns:svgjs="http://svgjs.com/svgjs" viewBox="103 5598 28 26"><svg width="28" height="26" xmlns="http://www.w3.org/2000/svg" xmlns:xlink="http://www.w3.org/1999/xlink" xmlns:svgjs="http://svgjs.com/svgjs" viewBox="0.5 0 27 26" fill="#5b2aee" x="103" y="5598"><svg xmlns="http://www.w3.org/2000/svg" xmlns:xlink="http://www.w3.org/1999/xlink" width="28" height="26" viewBox="1 0 27 26"><path paint-order="stroke fill markers" fill-rule="evenodd" d="M14.5 26C7.034 26 1 20.189 1 13 1 5.81 7.034 0 14.5 0 21.965 0 28 5.81 28 13c0 7.189-6.035 13-13.5 13z"/></svg></svg><svg width="12" height="11" xmlns="http://www.w3.org/2000/svg" xmlns:xlink="http://www.w3.org/1999/xlink" xmlns:svgjs="http://svgjs.com/svgjs" viewBox="113 5605 12 11" x="113" y="5605"><svg width="12" height="11" xmlns="http://www.w3.org/2000/svg" xmlns:xlink="http://www.w3.org/1999/xlink" xmlns:svgjs="http://svgjs.com/svgjs" viewBox="113 5605 12 11" x="113" y="5605"><svg width="3" height="8" xmlns="http://www.w3.org/2000/svg" xmlns:xlink="http://www.w3.org/1999/xlink" xmlns:svgjs="http://svgjs.com/svgjs" viewBox="0.268 0 2.463 8" fill="#fff" x="113" y="5608"><svg xmlns="http://www.w3.org/2000/svg" xmlns:xlink="http://www.w3.org/1999/xlink" width="3" height="8" viewBox="0.312 0.75 2.1 6.82"><path paint-order="stroke fill markers" fill-rule="evenodd" d="M.662 7.57h1.4a.35.35 0 0 0 .35-.35V1.1a.35.35 0 0 0-.35-.35h-1.4a.35.35 0 0 0-.35.35v6.12c0 .193.157.35.35.35z"/></svg></svg><svg width="3" height="3" xmlns="http://www.w3.org/2000/svg" xmlns:xlink="http://www.w3.org/1999/xlink" xmlns:svgjs="http://svgjs.com/svgjs" viewBox="0 0.112 3 2.776" fill="#fff" x="113" y="5605"><svg xmlns="http://www.w3.org/2000/svg" xmlns:xlink="http://www.w3.org/1999/xlink" width="3" height="3" viewBox="0.312 0.731 2.1 1.943"><path paint-order="stroke fill markers" fill-rule="evenodd" d="M.662 2.674h1.4a.35.35 0 0 0 .35-.35V1.08a.35.35 0 0 0-.35-.35h-1.4a.35.35 0 0 0-.35.35v1.244c0 .193.157.35.35.35z"/></svg></svg><svg width="9" height="8" xmlns="http://www.w3.org/2000/svg" xmlns:xlink="http://www.w3.org/1999/xlink" xmlns:svgjs="http://svgjs.com/svgjs" viewBox="0.366 0 8.267 8" fill="#fff" x="116" y="5608"><svg xmlns="http://www.w3.org/2000/svg" width="9" height="8" viewBox="0.85 0.57 7.233 7"><path paint-order="stroke fill markers" fill-rule="evenodd" d="M7.556 1.46C7.36 1.2 7.07.987 6.686.82a3.147 3.147 0 0 0-1.27-.25c-.941 0-1.738.36-2.392 1.077-.13.143-.224.112-.224-.081v-.467a.35.35 0 0 0-.35-.35H1.2a.35.35 0 0 0-.35.35V7.22c0 .193.156.35.35.35h1.4a.35.35 0 0 0 .35-.35V5.092c0-.887.053-1.495.16-1.824.107-.329.305-.593.594-.792.29-.2.615-.3.98-.3.283 0 .526.07.728.21.201.14.347.335.437.587.09.252.134.806.134 1.662V7.22c0 .193.157.35.35.35h1.4a.35.35 0 0 0 .35-.35V3.754c0-.613-.039-1.084-.116-1.412a2.315 2.315 0 0 0-.41-.883z"/></svg></svg></svg></svg></svg>