<svg width="73" height="70" xmlns="http://www.w3.org/2000/svg" xmlns:xlink="http://www.w3.org/1999/xlink" xmlns:svgjs="http://svgjs.com/svgjs" viewBox="340 2015 73 70">
    <svg width="73" height="70" xmlns="http://www.w3.org/2000/svg" xmlns:xlink="http://www.w3.org/1999/xlink" xmlns:svgjs="http://svgjs.com/svgjs" fill="#875fff" opacity=".102" x="340" y="2015">
        <svg xmlns="http://www.w3.org/2000/svg" xmlns:xlink="http://www.w3.org/1999/xlink" width="73" height="70">
            <path paint-order="stroke fill markers" fill-rule="evenodd" d="M15 0h43c8.295 0 15 6.705 15 15v40c0 8.295-6.705 15-15 15H15C6.705 70 0 63.294 0 55V15C0 6.705 6.705 0 15 0z" />
        </svg>
    </svg>
    <svg width="39" height="39" xmlns="http://www.w3.org/2000/svg" xmlns:xlink="http://www.w3.org/1999/xlink" xmlns:svgjs="http://svgjs.com/svgjs" fill="#8056ff" x="362" y="2031">
        <svg xmlns="http://www.w3.org/2000/svg" width="39" height="39" viewBox="0 0 38.858 38.858">
            <path paint-order="stroke fill markers" fill-rule="evenodd" d="M34.613 8.095a4.216 4.216 0 0 0-3 1.244L29.38 11.57l-.237.237V5.666a2.432 2.432 0 0 0-2.428-2.428h-4.197a2.424 2.424 0 0 0-2.28-1.62h-2.872A3.237 3.237 0 0 0 14.572 0a3.236 3.236 0 0 0-2.795 1.619H8.905a2.424 2.424 0 0 0-2.28 1.619H2.43a2.432 2.432 0 0 0-2.43 2.428V36.43a2.432 2.432 0 0 0 2.43 2.429h24.286a2.432 2.432 0 0 0 2.428-2.429V23.81l6.234-6.232.005-.004.003-.005 2.23-2.229a4.21 4.21 0 0 0 1.243-3.002 4.247 4.247 0 0 0-4.245-4.242zM8.095 4.048a.81.81 0 0 1 .81-.81h3.387a.812.812 0 0 0 .763-.54 1.62 1.62 0 0 1 1.517-1.08 1.62 1.62 0 0 1 1.517 1.08.81.81 0 0 0 .762.54h3.387a.81.81 0 0 1 .81.81v.809H8.095v-.81zm19.43 32.381a.81.81 0 0 1-.81.81H2.429a.81.81 0 0 1-.81-.81V5.666a.81.81 0 0 1 .81-.81h4.047v.81c0 .448.363.81.81.81h14.572a.81.81 0 0 0 .81-.81v-.81h4.047a.81.81 0 0 1 .81.81v7.76l-4.485 4.486a.795.795 0 0 0-.373-.102H10.524a.81.81 0 0 0 0 1.618h10.998l-4.857 4.858h-6.141a.81.81 0 0 0 0 1.62h5.44l-1.214 4.856h-4.226a.81.81 0 0 0 0 1.62h4.857a.753.753 0 0 0 .196-.026l6.477-1.62c.019-.004.032-.022.051-.028a.806.806 0 0 0 .274-.155c.014-.013.037-.014.052-.029l5.093-5.095v11zm-9.922-10.4c.523.153 1.297.49 2.062 1.257.768.768 1.106 1.543 1.258 2.064l-4.43 1.11 1.11-4.43zm4.684 2.348a6.51 6.51 0 0 0-1.479-2.235 6.498 6.498 0 0 0-2.232-1.476L29.953 13.29 33.664 17 22.287 28.377zM36.47 14.194l-1.661 1.661-3.711-3.71 1.66-1.663a2.601 2.601 0 0 1 1.858-.77 2.627 2.627 0 0 1 1.854 4.482z" />
        </svg>
    </svg>
</svg>