<svg width="21" height="20" xmlns="http://www.w3.org/2000/svg" xmlns:xlink="http://www.w3.org/1999/xlink" xmlns:svgjs="http://svgjs.com/svgjs" viewBox="0.017 0 20.966 20" fill="#feb301">
    <svg xmlns="http://www.w3.org/2000/svg" width="21" height="20" viewBox="1 0.029 19.955 19.035">
        <path paint-order="stroke fill markers" fill-rule="evenodd" d="M20.926 7.257a.585.585 0 0 0-.472-.397l-6.186-.9L11.502.355a.584.584 0 0 0-1.049 0L7.686 5.96l-6.186.9a.585.585 0 0 0-.324.996l4.477 4.364-1.057 6.16a.584.584 0 0 0 .848.617l5.533-2.909 5.533 2.909a.585.585 0 0 0 .849-.616l-1.057-6.161 4.476-4.364a.584.584 0 0 0 .148-.599z" />
    </svg>
</svg>