<svg width="73" height="70" xmlns="http://www.w3.org/2000/svg" xmlns:xlink="http://www.w3.org/1999/xlink" xmlns:svgjs="http://svgjs.com/svgjs" viewBox="814 2015 73 70">
    <svg width="73" height="70" xmlns="http://www.w3.org/2000/svg" xmlns:xlink="http://www.w3.org/1999/xlink" xmlns:svgjs="http://svgjs.com/svgjs" fill="#57e5ac" opacity=".102" x="814" y="2015">
        <svg xmlns="http://www.w3.org/2000/svg" xmlns:xlink="http://www.w3.org/1999/xlink" width="73" height="70">
            <path paint-order="stroke fill markers" fill-rule="evenodd" d="M15 0h43c8.295 0 15 6.705 15 15v40c0 8.295-6.705 15-15 15H15C6.705 70 0 63.294 0 55V15C0 6.705 6.705 0 15 0z" />
        </svg>
    </svg>
    <svg width="46" height="36" xmlns="http://www.w3.org/2000/svg" xmlns:xlink="http://www.w3.org/1999/xlink" xmlns:svgjs="http://svgjs.com/svgjs" viewBox="829 2034 46 36" x="829" y="2034">
        <svg width="46" height="31" xmlns="http://www.w3.org/2000/svg" xmlns:xlink="http://www.w3.org/1999/xlink" xmlns:svgjs="http://svgjs.com/svgjs" viewBox="0.5 0 45 31" fill="none" stroke-miterlimit="100" stroke="#5ad6a6" stroke-width="2" x="829" y="2034">
            <svg xmlns="http://www.w3.org/2000/svg" xmlns:xlink="http://www.w3.org/1999/xlink" width="46" height="31" viewBox="0.5 0 45 31">
                <path paint-order="stroke fill markers" d="M5.5 0h35c2.765 0 5 2.235 5 5v21c0 2.765-2.235 5-5 5h-35c-2.765 0-5-2.235-5-5V5c0-2.765 2.235-5 5-5z" />
            </svg>
        </svg>
        <svg width="46" height="0" xmlns="http://www.w3.org/2000/svg" xmlns:xlink="http://www.w3.org/1999/xlink" xmlns:svgjs="http://svgjs.com/svgjs" fill="none" stroke-miterlimit="100" stroke="#5ad6a6" stroke-width="2" x="829" y="2057">
            <svg xmlns="http://www.w3.org/2000/svg" xmlns:xlink="http://www.w3.org/1999/xlink" width="46" height="0">
                <path paint-order="stroke fill markers" d="M.5.352h0" />
            </svg>
        </svg>
        <svg width="0" height="6" xmlns="http://www.w3.org/2000/svg" xmlns:xlink="http://www.w3.org/1999/xlink" xmlns:svgjs="http://svgjs.com/svgjs" fill="none" stroke-miterlimit="100" stroke="#5ad6a6" stroke-width="2" x="854" y="2064">
            <svg xmlns="http://www.w3.org/2000/svg" xmlns:xlink="http://www.w3.org/1999/xlink" width="0" height="6">
                <path paint-order="stroke fill markers" d="M.215.908v0" />
            </svg>
        </svg>
        <svg width="11" height="0" xmlns="http://www.w3.org/2000/svg" xmlns:xlink="http://www.w3.org/1999/xlink" xmlns:svgjs="http://svgjs.com/svgjs" fill="none" stroke-miterlimit="100" stroke-linecap="round" stroke="#5ad6a6" stroke-width="2" x="846" y="2070">
            <svg xmlns="http://www.w3.org/2000/svg" xmlns:xlink="http://www.w3.org/1999/xlink" width="11" height="0">
                <path paint-order="stroke fill markers" d="M10.895.191H.298h10.597" />
            </svg>
        </svg>
        <svg width="0" height="6" xmlns="http://www.w3.org/2000/svg" xmlns:xlink="http://www.w3.org/1999/xlink" xmlns:svgjs="http://svgjs.com/svgjs" fill="none" stroke-miterlimit="100" stroke="#5ad6a6" stroke-width="2" x="848" y="2064">
            <svg xmlns="http://www.w3.org/2000/svg" xmlns:xlink="http://www.w3.org/1999/xlink" width="0" height="6">
                <path paint-order="stroke fill markers" d="M.94.908v0" />
            </svg>
        </svg>
        <svg width="22" height="12" xmlns="http://www.w3.org/2000/svg" xmlns:xlink="http://www.w3.org/1999/xlink" xmlns:svgjs="http://svgjs.com/svgjs" viewBox="0 0.288 22 11.423" fill="none" stroke-miterlimit="100" stroke-linecap="round" stroke="#5ad6a6" stroke-width="2" x="841" y="2042">
            <svg xmlns="http://www.w3.org/2000/svg" width="22" height="12" viewBox="0.69 0.093 21.206 11.011">
                <path paint-order="stroke fill markers" d="M.69 11.104l4.515-7.741a.348.348 0 0 1 .562-.056l3.45 3.909a.346.346 0 0 0 .556-.047l1.938-3.12a.346.346 0 0 1 .57-.03l3.344 4.266a.349.349 0 0 0 .56-.015l5.71-8.177L.69 11.104" />
            </svg>
        </svg>
    </svg>
</svg>