<svg width="26" height="26" xmlns="http://www.w3.org/2000/svg" xmlns:xlink="http://www.w3.org/1999/xlink" xmlns:svgjs="http://svgjs.com/svgjs" viewBox="70 5598 26 26"><svg width="26" height="26" xmlns="http://www.w3.org/2000/svg" xmlns:xlink="http://www.w3.org/1999/xlink" xmlns:svgjs="http://svgjs.com/svgjs" fill="#5b2aee" x="70" y="5598"><svg xmlns="http://www.w3.org/2000/svg" xmlns:xlink="http://www.w3.org/1999/xlink" width="26" height="26"><path paint-order="stroke fill markers" fill-rule="evenodd" d="M13 26C5.81 26 0 20.189 0 13 0 5.81 5.81 0 13 0c7.189 0 13 5.81 13 13 0 7.189-5.811 13-13 13z"/></svg></svg><svg width="12" height="10" xmlns="http://www.w3.org/2000/svg" xmlns:xlink="http://www.w3.org/1999/xlink" xmlns:svgjs="http://svgjs.com/svgjs" viewBox="0 0.125 12 9.75" fill="#fff" x="77" y="5606"><svg xmlns="http://www.w3.org/2000/svg" width="12" height="10" viewBox="0.522 0.59 11.293 9.176"><path paint-order="stroke fill markers" fill-rule="evenodd" d="M11.815 1.676a4.83 4.83 0 0 1-1.334.366c.48-.287.846-.737 1.018-1.28a4.617 4.617 0 0 1-1.468.56 2.315 2.315 0 0 0-4.005 1.583c0 .184.016.36.054.529a6.555 6.555 0 0 1-4.772-2.422 2.32 2.32 0 0 0 .712 3.095A2.29 2.29 0 0 1 .972 3.82v.025c0 1.126.803 2.06 1.855 2.276a2.324 2.324 0 0 1-.607.076c-.148 0-.297-.009-.438-.04a2.337 2.337 0 0 0 2.163 1.613 4.652 4.652 0 0 1-3.424.956 6.52 6.52 0 0 0 3.551 1.039c4.26 0 6.59-3.53 6.59-6.588a6.07 6.07 0 0 0-.008-.3 4.63 4.63 0 0 0 1.16-1.202z"/></svg></svg></svg>